# xmcd CD database file
#
# Track frame offsets:
#	182
#	13497
#	26155
#	39035
#	52040
#	64725
#	77270
#	89597
#	103232
#	114915
#	127862
#	137735
#	146352
#	156970
#	168345
#	182007
#	196602
#	208562
#	220325
#	233750
#	247170
#	258597
#	272945
#	283505
#
# Disc length: 3930 seconds
#
# Revision: 0
# Processed by: cddbd v1.5PL3 Copyright (c) Steve Scherf et al.
# Submitted via: CDex 1.50beta10
#
DISCID=590f5818
DTITLE=Sidney Bechet - 1940-1941
DYEAR=1900
DGENRE=Jazz
TTITLE0=Blues in Thirds
TTITLE1=Blue for You, Johnny
TTITLE2=Ain't Misbehavin'
TTITLE3=Save It, Pretty Mama
TTITLE4=Stompy Jones
TTITLE5=Muskrat Ramble
TTITLE6=Coal Black Shine
TTITLE7=Egyptian Fantasy
TTITLE8=Baby, Won't You Please Come Home?
TTITLE9=Slippin' and Slidin'
TTITLE10=The Sheik of Araby
TTITLE11=Blues of Bechet
TTITLE12=Swing Parade
TTITLE13=I Know That You Know
TTITLE14=When It's Sleepy Time Down South
TTITLE15=I Ain't Gonna Give None o' this Jelly-Roll
TTITLE16=I'm Coming, Virginia
TTITLE17=Limehouse Blues
TTITLE18=Georgia Cabin
TTITLE19=Texas Moaner
TTITLE20=Strange Fruit
TTITLE21=You're The Limit
TTITLE22=Rip Up the Joint
TTITLE23=Suey
EXTD=
EXTT0=
EXTT1=
EXTT2=
EXTT3=
EXTT4=
EXTT5=
EXTT6=
EXTT7=
EXTT8=
EXTT9=
EXTT10=
EXTT11=
EXTT12=
EXTT13=
EXTT14=
EXTT15=
EXTT16=
EXTT17=
EXTT18=
EXTT19=
EXTT20=
EXTT21=
EXTT22=
EXTT23=
PLAYORDER=
